<?xml version="1.0" standalone="no"?>
<!DOCTYPE svg PUBLIC "-//W3C//DTD SVG 20010904//EN"
 "http://www.w3.org/TR/2001/REC-SVG-20010904/DTD/svg10.dtd">
<svg version="1.0" xmlns="http://www.w3.org/2000/svg"
 width="149.000000pt" height="219.000000pt" viewBox="0 0 149.000000 219.000000"
 preserveAspectRatio="xMidYMid meet">

<g transform="translate(0.000000,219.000000) scale(0.100000,-0.100000)"
fill="#000000" stroke="none">
<path style="fill:#de4949;" d="M665 2176 c-98 -24 -134 -52 -366 -285 -242 -241 -267 -275 -289
-387 -9 -43 -9 -75 -1 -116 20 -110 48 -147 290 -390 203 -203 233 -230 296
-259 61 -29 79 -33 150 -32 44 0 93 6 110 12 l30 12 -50 25 c-60 30 -609 570
-631 621 -18 41 -18 95 0 136 18 41 442 463 479 477 16 5 43 10 62 10 19 0 46
-5 62 -10 37 -14 461 -436 479 -477 17 -38 18 -91 4 -130 -12 -29 -277 -303
-295 -303 -13 0 -375 362 -375 375 0 13 102 115 115 115 5 0 67 -57 138 -127
l128 -128 44 47 c77 80 68 103 -117 284 -192 190 -199 190 -390 -4 -136 -137
-154 -169 -129 -230 7 -16 119 -135 249 -264 258 -257 271 -266 365 -255 68 9
101 34 262 198 169 172 199 226 199 354 0 70 -4 90 -32 149 -29 62 -58 95
-260 297 -239 239 -274 265 -380 288 -64 13 -82 13 -147 -3z"/>
<path d="M470 280 c0 -172 1 -180 20 -180 16 0 19 8 22 62 l3 63 66 -62 c47
-45 73 -63 93 -63 24 0 21 5 -44 67 -39 36 -69 69 -68 74 2 4 31 32 66 63 58
52 61 56 36 56 -18 0 -47 -18 -90 -56 l-64 -56 0 106 c0 99 -1 106 -20 106
-19 0 -20 -7 -20 -180z"/>
<path d="M750 435 c0 -18 5 -25 20 -25 15 0 20 7 20 25 0 18 -5 25 -20 25 -15
0 -20 -7 -20 -25z"/>
<path d="M210 361 c-16 -4 -26 -15 -28 -30 -3 -20 -1 -21 17 -12 33 18 99 13
121 -9 11 -11 20 -24 20 -29 0 -5 -30 -12 -66 -16 -51 -5 -73 -13 -90 -30 -27
-27 -32 -79 -10 -108 28 -37 111 -40 152 -6 11 9 14 8 14 -5 0 -9 8 -16 20
-16 19 0 20 7 20 95 0 117 -13 149 -68 164 -41 12 -65 12 -102 2z m130 -146
c0 -25 -27 -72 -45 -79 -29 -11 -58 -7 -77 11 -43 39 -4 83 74 83 37 0 48 -4
48 -15z"/>
<path d="M957 351 c-29 -15 -37 -16 -37 -5 0 8 -9 14 -20 14 -19 0 -20 -7 -20
-130 0 -121 1 -130 19 -130 17 0 19 10 23 96 3 87 5 98 27 115 34 27 82 22 98
-11 7 -14 13 -62 13 -112 0 -81 2 -88 20 -88 19 0 20 7 20 95 0 107 -14 150
-56 165 -35 14 -45 13 -87 -9z"/>
<path d="M1233 360 c-42 -17 -64 -68 -61 -138 3 -52 8 -67 31 -90 34 -34 103
-38 136 -8 21 19 21 19 21 -6 0 -14 -10 -38 -22 -53 -20 -25 -25 -27 -80 -23
-50 4 -58 2 -58 -13 0 -23 57 -35 113 -23 31 7 47 18 64 43 21 31 23 45 23
172 0 132 -1 139 -20 139 -12 0 -20 -7 -20 -17 0 -15 -2 -15 -17 0 -23 20 -82
29 -110 17z m108 -62 c15 -24 19 -44 16 -76 -6 -54 -30 -82 -72 -82 -48 0 -70
30 -70 95 0 65 22 95 72 95 27 0 37 -6 54 -32z"/>
<path d="M750 230 c0 -123 1 -130 20 -130 19 0 20 7 20 130 0 123 -1 130 -20
130 -19 0 -20 -7 -20 -130z"/>
</g>
</svg>
